<svg width="484" height="484" viewBox="0 0 484 484" fill="none" xmlns="http://www.w3.org/2000/svg" xmlns:xlink="http://www.w3.org/1999/xlink">
<g id="framehead">
<circle id="black_circle_head" cx="242" cy="242" r="231.5" stroke="black" stroke-width="21"/>
<rect id="w 1" x="29" y="29" width="426" height="426" fill="url(#pattern0)"/>
<g id="normal-with-eyeset">
<path id="Vector" fill-rule="evenodd" clip-rule="evenodd" d="M286.913 54C286.913 68.9224 286.913 83.8448 286.913 100.212C324.011 118.874 361.384 137.677 399 156.601C399 212.506 399 267.677 399 323.959C332.775 358.691 266.408 393.494 197.977 429.382C197.977 412.834 197.977 398.735 197.977 383.968C159.829 363.649 122.404 343.716 85 323.795C85 267.646 85 212.444 85 156.352C123.959 136.543 162.882 116.92 201.641 96.9861C229.071 82.8745 256.284 68.342 283.59 54C284.698 54 285.806 54 286.913 54ZM288.221 343.596C289.585 344.057 290.95 344.513 292.314 344.974C301.074 334.429 309.284 323.348 318.819 313.561C323.418 308.842 330.321 304.141 336.515 303.645C351.375 302.462 357.153 295.116 357.179 281.23C357.223 257.969 357.764 234.708 357.392 211.456C357.104 193.366 350.117 186.818 331.721 186.773C269.133 186.623 206.542 186.95 143.959 186.538C129.546 186.445 123.635 193.269 123.453 206.472C123.174 226.964 122.971 247.46 123.33 267.947C123.706 289.524 137.242 302.621 158.916 302.71C196.023 302.865 233.139 302.754 270.245 302.759C276.165 302.759 282.084 302.759 288.225 302.759C288.221 317.841 288.221 330.721 288.221 343.596Z" fill="black"/>
<path id="Vector_2" fill-rule="evenodd" clip-rule="evenodd" d="M288.22 343.596C288.22 330.716 288.22 317.841 288.22 302.759C282.079 302.759 276.16 302.759 270.241 302.759C233.134 302.759 196.023 302.865 158.912 302.71C137.233 302.617 123.702 289.525 123.325 267.947C122.966 247.46 123.17 226.964 123.449 206.472C123.631 193.269 129.541 186.445 143.954 186.539C206.537 186.946 269.129 186.623 331.716 186.773C350.112 186.818 357.099 193.366 357.387 211.456C357.759 234.709 357.219 257.974 357.174 281.23C357.148 295.116 351.366 302.462 336.51 303.645C330.316 304.137 323.413 308.838 318.814 313.561C309.279 323.348 301.065 334.429 292.31 344.974C290.954 344.513 289.585 344.057 288.22 343.596ZM296.107 220.437C284.8 220.832 276.816 229.48 277.21 240.894C277.609 252.205 286.244 260.185 297.666 259.786C308.973 259.392 316.957 250.743 316.563 239.33C316.169 228.023 307.52 220.039 296.107 220.437ZM206.887 239.33C206.493 228.018 197.853 220.039 186.431 220.437C175.124 220.832 167.14 229.476 167.538 240.894C167.933 252.201 176.577 260.185 187.995 259.786C199.302 259.392 207.286 250.747 206.887 239.33Z" fill="white"/>
<g id="eyes">
<g id="socket2">
<path id="right-socket" d="M297.671 284.395C322.141 284.395 341.977 264.558 341.977 240.088C341.977 215.619 322.141 195.782 297.671 195.782C273.201 195.782 253.364 215.619 253.364 240.088C253.364 264.558 273.201 284.395 297.671 284.395Z" fill="white"/>
<path id="right-up" fill-rule="evenodd" clip-rule="evenodd" d="M317.85 249.472C300.796 236.37 297.789 236.335 279.331 248.641C278.735 235.085 284.665 227.433 297.731 226.316C310.254 225.243 316.622 232.471 317.85 249.472Z" fill="white"/>
<path id="right-down" fill-rule="evenodd" clip-rule="evenodd" d="M279.291 226.212C291.677 238.625 303.926 240.718 315.945 226.305C317.243 240.907 311.918 248.45 300.393 249.611C287.323 250.94 280.019 243.349 279.291 226.212Z" fill="white"/>
<path id="right-squint" fill-rule="evenodd" clip-rule="evenodd" d="M296.692 249.452C292.413 243.133 287.807 239.318 288.138 235.997C288.487 232.491 293.552 229.458 296.55 226.212C299.928 229.625 305.068 232.606 306.057 236.611C306.711 239.247 301.377 243.358 296.692 249.452Z" fill="white"/>
<path id="right-asleep" fill-rule="evenodd" clip-rule="evenodd" d="M279.291 240.099C291.173 232.019 304.504 236.426 318.135 235.043C313.698 245.743 304.411 247.173 279.291 240.099Z" fill="white"/>
<path id="right-normal" fill-rule="evenodd" clip-rule="evenodd" d="M296.107 220.438C307.521 220.04 316.169 228.024 316.564 239.331C316.963 250.748 308.974 259.393 297.667 259.787C286.245 260.186 277.61 252.206 277.211 240.895C276.816 229.477 284.8 220.833 296.107 220.438Z" fill="black"/>
</g>
<g id="socket1">
<path id="left-socket" d="M186.905 284.395C211.374 284.395 231.211 264.558 231.211 240.088C231.211 215.619 211.374 195.782 186.905 195.782C162.435 195.782 142.598 215.619 142.598 240.088C142.598 264.558 162.435 284.395 186.905 284.395Z" fill="white"/>
<path id="left-up" fill-rule="evenodd" clip-rule="evenodd" d="M168.898 253.464C170.735 236.04 177.244 228.948 189.696 230.304C202.634 231.712 208.679 239.281 207.469 252.97C189.563 240.164 186.57 240.177 168.898 253.464Z" fill="white"/>
<path id="left-down" fill-rule="evenodd" clip-rule="evenodd" d="M168.898 230.504C186.592 242.43 189.612 242.404 205.659 230.142C206.736 244.501 200.682 252.255 188.159 252.542C175.583 252.834 169.397 245.76 168.898 230.504Z" fill="white"/>
<path id="left-squint" fill-rule="evenodd" clip-rule="evenodd" d="M173.314 239.19C179.509 234.695 183.762 229.489 186.376 230.209C190.359 231.308 193.207 236.519 196.541 239.976C193.22 242.895 190.045 247.876 186.526 248.136C183.205 248.375 179.518 243.655 173.314 239.19Z" fill="white"/>
<path id="left-asleep" fill-rule="evenodd" clip-rule="evenodd" d="M168.898 242.494C173.075 233.994 184.516 232.426 206.824 237.288C202.651 245.779 191.215 247.351 168.898 242.494Z" fill="white"/>
<path id="left-normal" fill-rule="evenodd" clip-rule="evenodd" d="M206.886 239.331C207.285 250.748 199.3 259.393 187.993 259.787C176.575 260.181 167.931 252.202 167.537 240.895C167.138 229.477 175.122 220.833 186.429 220.438C197.852 220.04 206.491 228.019 206.886 239.331Z" fill="black"/>
<circle id="left-normal-circle" cx="187.21" cy="240.11" r="19.69" fill="black"/>
</g>
</g>
</g>
</g>
<defs>
<pattern id="pattern0" patternContentUnits="objectBoundingBox" width="1" height="1">
<use xlink:href="#image0_21_100" transform="scale(0.00138889)"/>
</pattern>
<image id="image0_21_100" data-name="w.png" width="720" height="720" xlink:href=""/>
</defs>
</svg>

